<?xml version="1.0" encoding="UTF-8" standalone="no"?>
<!DOCTYPE svg PUBLIC "-//W3C//DTD SVG 1.1//EN"
 "http://www.w3.org/Graphics/SVG/1.1/DTD/svg11.dtd">
<!-- Generated by graphviz version 2.38.0 (20140413.2041)
 -->
<!-- Title: arbolAST Pages: 1 -->
<svg width="663pt" height="476pt"
 viewBox="0.00 0.00 663.00 476.00" xmlns="http://www.w3.org/2000/svg" xmlns:xlink="http://www.w3.org/1999/xlink">
<g id="graph0" class="graph" transform="scale(1 1) rotate(0) translate(4 472)">
<title>arbolAST</title>
<polygon fill="white" stroke="none" points="-4,4 -4,-472 659,-472 659,4 -4,4"/>
<!-- n0 -->
<g id="node1" class="node"><title>n0</title>
<ellipse fill="none" stroke="black" cx="279" cy="-450" rx="28.6953" ry="18"/>
<text text-anchor="middle" x="279" y="-446.3" font-family="Times New Roman,serif" font-size="14.00">INIT</text>
</g>
<!-- n1 -->
<g id="node2" class="node"><title>n1</title>
<ellipse fill="none" stroke="black" cx="279" cy="-378" rx="83.3857" ry="18"/>
<text text-anchor="middle" x="279" y="-374.3" font-family="Times New Roman,serif" font-size="14.00">INSTRUCCIONES</text>
</g>
<!-- n0&#45;&gt;n1 -->
<g id="edge1" class="edge"><title>n0&#45;&gt;n1</title>
<path fill="none" stroke="black" d="M279,-431.697C279,-423.983 279,-414.712 279,-406.112"/>
<polygon fill="black" stroke="black" points="282.5,-406.104 279,-396.104 275.5,-406.104 282.5,-406.104"/>
</g>
<!-- n2 -->
<g id="node3" class="node"><title>n2</title>
<ellipse fill="none" stroke="black" cx="279" cy="-306" rx="51.1914" ry="18"/>
<text text-anchor="middle" x="279" y="-302.3" font-family="Times New Roman,serif" font-size="14.00">FUNCION</text>
</g>
<!-- n1&#45;&gt;n2 -->
<g id="edge2" class="edge"><title>n1&#45;&gt;n2</title>
<path fill="none" stroke="black" d="M279,-359.697C279,-351.983 279,-342.712 279,-334.112"/>
<polygon fill="black" stroke="black" points="282.5,-334.104 279,-324.104 275.5,-334.104 282.5,-334.104"/>
</g>
<!-- n3 -->
<g id="node4" class="node"><title>n3</title>
<ellipse fill="none" stroke="black" cx="27" cy="-234" rx="27" ry="18"/>
<text text-anchor="middle" x="27" y="-230.3" font-family="Times New Roman,serif" font-size="14.00">id</text>
</g>
<!-- n2&#45;&gt;n3 -->
<g id="edge3" class="edge"><title>n2&#45;&gt;n3</title>
<path fill="none" stroke="black" d="M234.388,-296.779C190.171,-288 120.861,-272.526 63,-252 61.0946,-251.324 59.1547,-250.581 57.213,-249.794"/>
<polygon fill="black" stroke="black" points="58.206,-246.409 47.6411,-245.613 55.4039,-252.823 58.206,-246.409"/>
</g>
<!-- n4 -->
<g id="node5" class="node"><title>n4</title>
<ellipse fill="none" stroke="black" cx="99" cy="-234" rx="27" ry="18"/>
<text text-anchor="middle" x="99" y="-230.3" font-family="Times New Roman,serif" font-size="14.00">(</text>
</g>
<!-- n2&#45;&gt;n4 -->
<g id="edge4" class="edge"><title>n2&#45;&gt;n4</title>
<path fill="none" stroke="black" d="M243.449,-292.902C214.096,-282.678 171.484,-267.293 135,-252 133.183,-251.238 131.325,-250.436 129.457,-249.611"/>
<polygon fill="black" stroke="black" points="130.731,-246.345 120.18,-245.383 127.828,-252.715 130.731,-246.345"/>
</g>
<!-- n5 -->
<g id="node6" class="node"><title>n5</title>
<ellipse fill="none" stroke="black" cx="171" cy="-234" rx="27" ry="18"/>
<text text-anchor="middle" x="171" y="-230.3" font-family="Times New Roman,serif" font-size="14.00">)</text>
</g>
<!-- n2&#45;&gt;n5 -->
<g id="edge5" class="edge"><title>n2&#45;&gt;n5</title>
<path fill="none" stroke="black" d="M255.566,-289.811C238.766,-278.922 216.081,-264.219 198.436,-252.782"/>
<polygon fill="black" stroke="black" points="200.021,-249.639 189.725,-247.137 196.213,-255.513 200.021,-249.639"/>
</g>
<!-- n6 -->
<g id="node7" class="node"><title>n6</title>
<ellipse fill="none" stroke="black" cx="243" cy="-234" rx="27" ry="18"/>
<text text-anchor="middle" x="243" y="-230.3" font-family="Times New Roman,serif" font-size="14.00">:</text>
</g>
<!-- n2&#45;&gt;n6 -->
<g id="edge6" class="edge"><title>n2&#45;&gt;n6</title>
<path fill="none" stroke="black" d="M270.285,-288.055C266.023,-279.767 260.803,-269.618 256.075,-260.424"/>
<polygon fill="black" stroke="black" points="259.073,-258.599 251.386,-251.307 252.847,-261.801 259.073,-258.599"/>
</g>
<!-- n7 -->
<g id="node8" class="node"><title>n7</title>
<ellipse fill="none" stroke="black" cx="315" cy="-234" rx="27" ry="18"/>
<text text-anchor="middle" x="315" y="-230.3" font-family="Times New Roman,serif" font-size="14.00">int</text>
</g>
<!-- n2&#45;&gt;n7 -->
<g id="edge7" class="edge"><title>n2&#45;&gt;n7</title>
<path fill="none" stroke="black" d="M287.715,-288.055C291.977,-279.767 297.197,-269.618 301.925,-260.424"/>
<polygon fill="black" stroke="black" points="305.153,-261.801 306.614,-251.307 298.927,-258.599 305.153,-261.801"/>
</g>
<!-- n8 -->
<g id="node9" class="node"><title>n8</title>
<ellipse fill="none" stroke="black" cx="387" cy="-234" rx="27" ry="18"/>
<text text-anchor="middle" x="387" y="-230.3" font-family="Times New Roman,serif" font-size="14.00">{</text>
</g>
<!-- n2&#45;&gt;n8 -->
<g id="edge8" class="edge"><title>n2&#45;&gt;n8</title>
<path fill="none" stroke="black" d="M302.434,-289.811C319.234,-278.922 341.919,-264.219 359.564,-252.782"/>
<polygon fill="black" stroke="black" points="361.787,-255.513 368.275,-247.137 357.979,-249.639 361.787,-255.513"/>
</g>
<!-- n9 -->
<g id="node10" class="node"><title>n9</title>
<ellipse fill="none" stroke="black" cx="479" cy="-234" rx="47.3916" ry="18"/>
<text text-anchor="middle" x="479" y="-230.3" font-family="Times New Roman,serif" font-size="14.00">BLOQUE</text>
</g>
<!-- n2&#45;&gt;n9 -->
<g id="edge9" class="edge"><title>n2&#45;&gt;n9</title>
<path fill="none" stroke="black" d="M314.296,-292.647C348.122,-280.807 399.258,-262.91 435.568,-250.201"/>
<polygon fill="black" stroke="black" points="437.107,-253.371 445.389,-246.764 434.794,-246.764 437.107,-253.371"/>
</g>
<!-- n17 -->
<g id="node18" class="node"><title>n17</title>
<ellipse fill="none" stroke="black" cx="571" cy="-234" rx="27" ry="18"/>
<text text-anchor="middle" x="571" y="-230.3" font-family="Times New Roman,serif" font-size="14.00">}</text>
</g>
<!-- n2&#45;&gt;n17 -->
<g id="edge17" class="edge"><title>n2&#45;&gt;n17</title>
<path fill="none" stroke="black" d="M326.123,-298.672C378.159,-290.9 463.976,-275.747 535,-252 536.917,-251.359 538.867,-250.642 540.815,-249.876"/>
<polygon fill="black" stroke="black" points="542.604,-252.917 550.405,-245.748 539.836,-246.487 542.604,-252.917"/>
</g>
<!-- n10 -->
<g id="node11" class="node"><title>n10</title>
<ellipse fill="none" stroke="black" cx="479" cy="-162" rx="37.8943" ry="18"/>
<text text-anchor="middle" x="479" y="-158.3" font-family="Times New Roman,serif" font-size="14.00">PRINT</text>
</g>
<!-- n9&#45;&gt;n10 -->
<g id="edge10" class="edge"><title>n9&#45;&gt;n10</title>
<path fill="none" stroke="black" d="M479,-215.697C479,-207.983 479,-198.712 479,-190.112"/>
<polygon fill="black" stroke="black" points="482.5,-190.104 479,-180.104 475.5,-190.104 482.5,-190.104"/>
</g>
<!-- n11 -->
<g id="node12" class="node"><title>n11</title>
<ellipse fill="none" stroke="black" cx="330" cy="-90" rx="27.0966" ry="18"/>
<text text-anchor="middle" x="330" y="-86.3" font-family="Times New Roman,serif" font-size="14.00">print</text>
</g>
<!-- n10&#45;&gt;n11 -->
<g id="edge11" class="edge"><title>n10&#45;&gt;n11</title>
<path fill="none" stroke="black" d="M452.959,-148.81C430.05,-138.08 395.801,-122.025 366,-108 364.409,-107.251 362.779,-106.484 361.133,-105.708"/>
<polygon fill="black" stroke="black" points="362.235,-102.358 351.698,-101.257 359.249,-108.689 362.235,-102.358"/>
</g>
<!-- n12 -->
<g id="node13" class="node"><title>n12</title>
<ellipse fill="none" stroke="black" cx="402" cy="-90" rx="27" ry="18"/>
<text text-anchor="middle" x="402" y="-86.3" font-family="Times New Roman,serif" font-size="14.00">(</text>
</g>
<!-- n10&#45;&gt;n12 -->
<g id="edge12" class="edge"><title>n10&#45;&gt;n12</title>
<path fill="none" stroke="black" d="M462.292,-145.811C451.335,-135.85 436.865,-122.696 424.848,-111.771"/>
<polygon fill="black" stroke="black" points="427.121,-109.107 417.367,-104.97 422.412,-114.286 427.121,-109.107"/>
</g>
<!-- n13 -->
<g id="node14" class="node"><title>n13</title>
<ellipse fill="none" stroke="black" cx="479" cy="-90" rx="32.4942" ry="18"/>
<text text-anchor="middle" x="479" y="-86.3" font-family="Times New Roman,serif" font-size="14.00">nativo</text>
</g>
<!-- n10&#45;&gt;n13 -->
<g id="edge13" class="edge"><title>n10&#45;&gt;n13</title>
<path fill="none" stroke="black" d="M479,-143.697C479,-135.983 479,-126.712 479,-118.112"/>
<polygon fill="black" stroke="black" points="482.5,-118.104 479,-108.104 475.5,-118.104 482.5,-118.104"/>
</g>
<!-- n15 -->
<g id="node16" class="node"><title>n15</title>
<ellipse fill="none" stroke="black" cx="556" cy="-90" rx="27" ry="18"/>
<text text-anchor="middle" x="556" y="-86.3" font-family="Times New Roman,serif" font-size="14.00">)</text>
</g>
<!-- n10&#45;&gt;n15 -->
<g id="edge15" class="edge"><title>n10&#45;&gt;n15</title>
<path fill="none" stroke="black" d="M495.708,-145.811C506.665,-135.85 521.135,-122.696 533.152,-111.771"/>
<polygon fill="black" stroke="black" points="535.588,-114.286 540.633,-104.97 530.879,-109.107 535.588,-114.286"/>
</g>
<!-- n16 -->
<g id="node17" class="node"><title>n16</title>
<ellipse fill="none" stroke="black" cx="628" cy="-90" rx="27" ry="18"/>
<text text-anchor="middle" x="628" y="-86.3" font-family="Times New Roman,serif" font-size="14.00">;</text>
</g>
<!-- n10&#45;&gt;n16 -->
<g id="edge16" class="edge"><title>n10&#45;&gt;n16</title>
<path fill="none" stroke="black" d="M505.041,-148.81C527.95,-138.08 562.199,-122.025 592,-108 593.782,-107.161 595.614,-106.298 597.462,-105.427"/>
<polygon fill="black" stroke="black" points="599.133,-108.509 606.684,-101.077 596.147,-102.178 599.133,-108.509"/>
</g>
<!-- n14 -->
<g id="node15" class="node"><title>n14</title>
<ellipse fill="none" stroke="black" cx="479" cy="-18" rx="32.4942" ry="18"/>
<text text-anchor="middle" x="479" y="-14.3" font-family="Times New Roman,serif" font-size="14.00">papas</text>
</g>
<!-- n13&#45;&gt;n14 -->
<g id="edge14" class="edge"><title>n13&#45;&gt;n14</title>
<path fill="none" stroke="black" d="M479,-71.6966C479,-63.9827 479,-54.7125 479,-46.1124"/>
<polygon fill="black" stroke="black" points="482.5,-46.1043 479,-36.1043 475.5,-46.1044 482.5,-46.1043"/>
</g>
</g>
</svg>
