<?xml version="1.0" encoding="UTF-8" standalone="no"?>
<!DOCTYPE svg PUBLIC "-//W3C//DTD SVG 1.1//EN"
 "http://www.w3.org/Graphics/SVG/1.1/DTD/svg11.dtd">
<!-- Generated by graphviz version 2.38.0 (20140413.2041)
 -->
<!-- Title: tabla Pages: 1 -->
<svg width="487pt" height="155pt"
 viewBox="0.00 0.00 487.42 155.08" xmlns="http://www.w3.org/2000/svg" xmlns:xlink="http://www.w3.org/1999/xlink">
<g id="graph0" class="graph" transform="scale(1 1) rotate(0) translate(4 151.078)">
<title>tabla</title>
<polygon fill="white" stroke="none" points="-4,4 -4,-151.078 483.418,-151.078 483.418,4 -4,4"/>
<!-- nodo -->
<g id="node1" class="node"><title>nodo</title>
<ellipse fill="none" stroke="black" cx="239.709" cy="-73.5391" rx="239.919" ry="73.5782"/>
<polygon fill="none" stroke="black" points="81.7092,-97.5391 81.7092,-118.539 133.709,-118.539 133.709,-97.5391 81.7092,-97.5391"/>
<text text-anchor="start" x="84.7092" y="-104.339" font-family="Times New Roman,serif" font-size="14.00">Numero</text>
<polygon fill="none" stroke="black" points="135.709,-97.5391 135.709,-118.539 164.709,-118.539 164.709,-97.5391 135.709,-97.5391"/>
<text text-anchor="start" x="144.709" y="-104.339" font-family="Times New Roman,serif" font-size="14.00">id</text>
<polygon fill="none" stroke="black" points="166.709,-97.5391 166.709,-118.539 203.709,-118.539 203.709,-97.5391 166.709,-97.5391"/>
<text text-anchor="start" x="174.209" y="-104.339" font-family="Times New Roman,serif" font-size="14.00">tipo</text>
<polygon fill="none" stroke="black" points="205.709,-97.5391 205.709,-118.539 266.709,-118.539 266.709,-97.5391 205.709,-97.5391"/>
<text text-anchor="start" x="222.209" y="-104.339" font-family="Times New Roman,serif" font-size="14.00">valor</text>
<polygon fill="none" stroke="black" points="268.709,-97.5391 268.709,-118.539 317.709,-118.539 317.709,-97.5391 268.709,-97.5391"/>
<text text-anchor="start" x="279.209" y="-104.339" font-family="Times New Roman,serif" font-size="14.00">clase</text>
<polygon fill="none" stroke="black" points="319.709,-97.5391 319.709,-118.539 342.709,-118.539 342.709,-97.5391 319.709,-97.5391"/>
<text text-anchor="start" x="322.709" y="-104.339" font-family="Times New Roman,serif" font-size="14.00">fila</text>
<polygon fill="none" stroke="black" points="344.709,-97.5391 344.709,-118.539 398.709,-118.539 398.709,-97.5391 344.709,-97.5391"/>
<text text-anchor="start" x="347.709" y="-104.339" font-family="Times New Roman,serif" font-size="14.00">columna</text>
<polygon fill="none" stroke="black" points="81.7092,-74.5391 81.7092,-95.5391 133.709,-95.5391 133.709,-74.5391 81.7092,-74.5391"/>
<text text-anchor="start" x="104.209" y="-81.3391" font-family="Times New Roman,serif" font-size="14.00">1</text>
<polygon fill="none" stroke="black" points="135.709,-74.5391 135.709,-95.5391 164.709,-95.5391 164.709,-74.5391 135.709,-74.5391"/>
<text text-anchor="start" x="146.709" y="-81.3391" font-family="Times New Roman,serif" font-size="14.00">a</text>
<polygon fill="none" stroke="black" points="166.709,-74.5391 166.709,-95.5391 203.709,-95.5391 203.709,-74.5391 166.709,-74.5391"/>
<text text-anchor="start" x="178.209" y="-81.3391" font-family="Times New Roman,serif" font-size="14.00">int</text>
<polygon fill="none" stroke="black" points="205.709,-74.5391 205.709,-95.5391 266.709,-95.5391 266.709,-74.5391 205.709,-74.5391"/>
<text text-anchor="start" x="208.709" y="-81.3391" font-family="Times New Roman,serif" font-size="14.00">undefined</text>
<polygon fill="none" stroke="black" points="268.709,-74.5391 268.709,-95.5391 317.709,-95.5391 317.709,-74.5391 268.709,-74.5391"/>
<text text-anchor="start" x="271.709" y="-81.3391" font-family="Times New Roman,serif" font-size="14.00">variable</text>
<polygon fill="none" stroke="black" points="319.709,-74.5391 319.709,-95.5391 342.709,-95.5391 342.709,-74.5391 319.709,-74.5391"/>
<text text-anchor="start" x="327.709" y="-81.3391" font-family="Times New Roman,serif" font-size="14.00">1</text>
<polygon fill="none" stroke="black" points="344.709,-74.5391 344.709,-95.5391 398.709,-95.5391 398.709,-74.5391 344.709,-74.5391"/>
<text text-anchor="start" x="368.209" y="-81.3391" font-family="Times New Roman,serif" font-size="14.00">0</text>
<polygon fill="none" stroke="black" points="81.7092,-51.5391 81.7092,-72.5391 133.709,-72.5391 133.709,-51.5391 81.7092,-51.5391"/>
<text text-anchor="start" x="104.209" y="-58.3391" font-family="Times New Roman,serif" font-size="14.00">2</text>
<polygon fill="none" stroke="black" points="135.709,-51.5391 135.709,-72.5391 164.709,-72.5391 164.709,-51.5391 135.709,-51.5391"/>
<text text-anchor="start" x="147.709" y="-58.3391" font-family="Times New Roman,serif" font-size="14.00">f</text>
<polygon fill="none" stroke="black" points="166.709,-51.5391 166.709,-72.5391 203.709,-72.5391 203.709,-51.5391 166.709,-51.5391"/>
<text text-anchor="start" x="169.709" y="-58.3391" font-family="Times New Roman,serif" font-size="14.00">string</text>
<polygon fill="none" stroke="black" points="205.709,-51.5391 205.709,-72.5391 266.709,-72.5391 266.709,-51.5391 205.709,-51.5391"/>
<text text-anchor="start" x="208.709" y="-58.3391" font-family="Times New Roman,serif" font-size="14.00">undefined</text>
<polygon fill="none" stroke="black" points="268.709,-51.5391 268.709,-72.5391 317.709,-72.5391 317.709,-51.5391 268.709,-51.5391"/>
<text text-anchor="start" x="271.709" y="-58.3391" font-family="Times New Roman,serif" font-size="14.00">variable</text>
<polygon fill="none" stroke="black" points="319.709,-51.5391 319.709,-72.5391 342.709,-72.5391 342.709,-51.5391 319.709,-51.5391"/>
<text text-anchor="start" x="327.709" y="-58.3391" font-family="Times New Roman,serif" font-size="14.00">2</text>
<polygon fill="none" stroke="black" points="344.709,-51.5391 344.709,-72.5391 398.709,-72.5391 398.709,-51.5391 344.709,-51.5391"/>
<text text-anchor="start" x="368.209" y="-58.3391" font-family="Times New Roman,serif" font-size="14.00">0</text>
<polygon fill="none" stroke="black" points="81.7092,-28.5391 81.7092,-49.5391 133.709,-49.5391 133.709,-28.5391 81.7092,-28.5391"/>
<text text-anchor="start" x="104.209" y="-35.3391" font-family="Times New Roman,serif" font-size="14.00">3</text>
<polygon fill="none" stroke="black" points="135.709,-28.5391 135.709,-49.5391 164.709,-49.5391 164.709,-28.5391 135.709,-28.5391"/>
<text text-anchor="start" x="138.709" y="-35.3391" font-family="Times New Roman,serif" font-size="14.00">jose</text>
<polygon fill="none" stroke="black" points="166.709,-28.5391 166.709,-49.5391 203.709,-49.5391 203.709,-28.5391 166.709,-28.5391"/>
<text text-anchor="start" x="178.209" y="-35.3391" font-family="Times New Roman,serif" font-size="14.00">int</text>
<polygon fill="none" stroke="black" points="205.709,-28.5391 205.709,-49.5391 266.709,-49.5391 266.709,-28.5391 205.709,-28.5391"/>
<text text-anchor="start" x="208.709" y="-35.3391" font-family="Times New Roman,serif" font-size="14.00">undefined</text>
<polygon fill="none" stroke="black" points="268.709,-28.5391 268.709,-49.5391 317.709,-49.5391 317.709,-28.5391 268.709,-28.5391"/>
<text text-anchor="start" x="271.709" y="-35.3391" font-family="Times New Roman,serif" font-size="14.00">funcion</text>
<polygon fill="none" stroke="black" points="319.709,-28.5391 319.709,-49.5391 342.709,-49.5391 342.709,-28.5391 319.709,-28.5391"/>
<text text-anchor="start" x="327.709" y="-35.3391" font-family="Times New Roman,serif" font-size="14.00">1</text>
<polygon fill="none" stroke="black" points="344.709,-28.5391 344.709,-49.5391 398.709,-49.5391 398.709,-28.5391 344.709,-28.5391"/>
<text text-anchor="start" x="368.209" y="-35.3391" font-family="Times New Roman,serif" font-size="14.00">0</text>
<polygon fill="none" stroke="black" points="78.2092,-25.5391 78.2092,-121.539 401.209,-121.539 401.209,-25.5391 78.2092,-25.5391"/>
</g>
</g>
</svg>
